Coordinates
version=1
nRows=10
nColumns=40
inDegrees=yes

Units are S.I. units (second, meters, Newtons, ...)
Angles are in degrees.

endheader
time	pelvis_tilt	pelvis_list	pelvis_rotation	pelvis_tx	pelvis_ty	pelvis_tz	hip_flexion_r	hip_adduction_r	hip_rotation_r	knee_angle_r	knee_angle_r_beta	ankle_angle_r	subtalar_angle_r	mtp_angle_r	hip_flexion_l	hip_adduction_l	hip_rotation_l	knee_angle_l	knee_angle_l_beta	ankle_angle_l	subtalar_angle_l	mtp_angle_l	lumbar_extension	lumbar_bending	lumbar_rotation	arm_flex_r	arm_add_r	arm_rot_r	elbow_flex_r	pro_sup_r	wrist_flex_r	wrist_dev_r	arm_flex_l	arm_add_l	arm_rot_l	elbow_flex_l	pro_sup_l	wrist_flex_l	wrist_dev_l
     44.71000000	     -4.96957111	     -4.21373594	      4.40449623	      1.10193432	      0.91421161	      0.44695754	      0.73014961	     -1.38819720	    -13.25095720	     32.90171820	     32.90171820	     12.42145199	     -5.96550077	    -17.01028488	     30.41079745	     -5.08389110	     -4.81244749	     26.66534556	     26.66534556	      4.97564107	    -15.68321066	      4.14232464	     -6.81211482	      4.48043593	      4.58146764	     37.38885961	    -14.74446218	      0.88532802	    119.17758818	     44.08967334	      0.00000000	      0.00000000	    -14.90006445	     -7.90629444	     16.32259036	     26.19714700	     43.32808865	      0.00000000	      0.00000000
     44.72114286	     -4.77775684	     -3.89338417	      4.05465921	      1.10200932	      0.91563745	      0.44504287	      2.37925726	     -2.41967082	    -13.06697638	     37.13589370	     37.13589370	     10.49696545	     -7.77149573	    -17.19131755	     29.52086417	     -4.86209947	     -5.23263456	     26.84174465	     26.84174465	      5.74821687	    -15.72711838	      3.77219274	     -6.99624114	      4.18150671	      4.34392162	     36.10491031	    -14.82730543	      1.08539033	    118.52625175	     44.10252356	      0.00000000	      0.00000000	    -13.89645198	     -8.02249694	     16.20415110	     26.41507520	     43.38055223	      0.00000000	      0.00000000
     44.73228571	     -4.76720221	     -3.67069952	      3.68289663	      1.10175144	      0.91681282	      0.44336356	      4.44794149	     -3.22108085	    -12.56288564	     41.47049834	     41.47049834	      8.10257145	    -10.38054862	    -17.04016533	     28.73659169	     -4.70648397	     -5.62990826	     26.78285696	     26.78285696	      6.47568609	    -15.72630269	      3.42793321	     -6.95573803	      3.98298868	      4.16152514	     34.61551753	    -15.05853567	      1.20289802	    117.60848567	     44.12642859	      0.00000000	      0.00000000	    -12.76296330	     -8.14244812	     16.03726586	     26.53674877	     43.44704357	      0.00000000	      0.00000000
     44.74342857	     -4.71687321	     -3.60072767	      3.32635196	      1.10130892	      0.91801677	      0.44199984	      6.57927957	     -3.64721071	    -11.84407753	     45.65570985	     45.65570985	      5.27100067	    -13.69329322	    -16.31207985	     27.95156158	     -4.72615700	     -5.99935867	     26.73120915	     26.73120915	      7.09730147	    -15.69427706	      3.00179911	     -6.94358744	      3.93328172	      4.12121918	     32.97054340	    -15.34627939	      1.10047123	    116.24645420	     44.17869843	      0.00000000	      0.00000000	    -11.34957243	     -8.19886903	     15.67078275	     26.36722768	     43.57821796	      0.00000000	      0.00000000
     44.75457143	     -4.53067043	     -3.28376216	      2.99212955	      1.10072481	      0.91926416	      0.44048609	      8.63389422	     -4.58156209	    -11.60071895	     49.86782847	     49.86782847	      2.68549636	    -15.56853842	    -15.43973484	     26.94756062	     -4.46862978	     -6.47427444	     26.57899333	     26.57899333	      7.69799598	    -15.61251364	      2.67200051	     -7.20370687	      3.65976000	      3.83109215	     31.40196000	    -15.31330612	      1.29690101	    115.25777279	     44.20018497	      0.00000000	      0.00000000	     -9.99005557	     -8.39585616	     15.47996173	     26.59795913	     43.64644964	      0.00000000	      0.00000000
     44.76571429	     -4.48480664	     -3.01993718	      2.61513751	      1.09984602	      0.92032702	      0.43927980	     10.96887210	     -5.31183175	    -11.11312145	     53.92603790	     53.92603790	      0.17239242	    -17.45168131	    -13.86753625	     26.07516923	     -4.26783135	     -6.95321991	     26.32463407	     26.32463407	      8.16437997	    -15.54345092	      2.36812974	     -7.30481384	      3.36308990	      3.68646611	     29.65032379	    -15.40526481	      1.41199946	    113.80444579	     44.23810615	      0.00000000	      0.00000000	     -8.56457037	     -8.64785607	     15.23838481	     26.86530275	     43.72362729	      0.00000000	      0.00000000
     44.77685714	     -4.47124256	     -2.97410434	      2.23751456	      1.09878442	      0.92128052	      0.43837364	     13.72364071	     -5.52297764	    -10.26686894	     58.41544301	     58.41544301	      1.04718687	    -17.40511544	     -2.91323568	     25.22678676	     -4.28063027	     -7.30284609	     25.94835390	     25.94835390	      8.24918332	    -15.66888965	      1.18527688	     -7.26468699	      3.36891360	      3.47376096	     28.05553603	    -15.23713473	      0.92753448	    110.94997236	     44.38234044	      0.00000000	      0.00000000	     -6.89704244	     -8.55615443	     13.42223095	     26.28991816	     44.19029269	      0.00000000	      0.00000000
     44.78800000	     -4.35261767	     -2.78536543	      1.90573378	      1.09761321	      0.92236803	      0.43727947	     16.01039046	     -6.04183434	     -9.79418200	     61.86554464	     61.86554464	     -0.52782439	    -18.18332622	     -0.75027392	     24.27928998	     -4.08687259	     -7.59285368	     25.61388642	     25.61388642	      8.63947908	    -15.75575010	      0.93800430	     -7.45254526	      3.20137421	      3.43136372	     26.24585878	    -15.44816056	      0.86447597	    108.64380944	     44.46117981	      0.00000000	      0.00000000	     -5.29015659	     -8.84313755	     12.82625126	     26.91317724	     44.34478372	      0.00000000	      0.00000000
     44.79914286	     -4.27457240	     -2.62157960	      1.56771035	      1.09627524	      0.92336916	      0.43637850	     18.49961836	     -6.29451305	     -9.01843747	     65.23686804	     65.23686804	     -0.47916072	    -18.29931174	      5.16868213	     23.37214009	     -3.93257425	     -7.90245369	     25.22020362	     25.22020362	      8.84835085	    -15.81388216	      0.37892816	     -7.60932522	      3.12350455	      2.88276117	     24.77877663	    -15.04266964	      1.03517013	    105.97187942	     44.57853328	      0.00000000	      0.00000000	     -3.90067927	     -9.00283024	     11.02401555	     27.46945230	     44.75486156	      0.00000000	      0.00000000
     44.81028571	     -4.17943608	     -2.45324678	      1.22114238	      1.09490519	      0.92439759	      0.43547755	     20.73060631	     -6.55449571	     -8.35450596	     67.85195852	     67.85195852	     -1.63521618	    -18.62397561	      5.53994185	     22.45008783	     -3.75962180	     -8.21918935	     24.84360442	     24.84360442	      9.24796116	    -15.80202661	      0.28292230	     -7.83039349	      3.04490724	      2.78110957	     22.83751379	    -15.10462190	      1.12969817	    103.94993971	     44.63411100	      0.00000000	      0.00000000	     -2.24016424	     -9.39048315	     10.78102495	     28.13955136	     44.82538147	      0.00000000	      0.00000000
